<svg xmlns="http://www.w3.org/2000/svg" xmlns:xlink="http://www.w3.org/1999/xlink" version="1.1" x="0px" y="0px" viewBox="0 0 100 125" enable-background="new 0 0 100 100" xml:space="preserve"><path d="M19,34.2c0.1-2.2-0.1-4.3,0.2-6.4c1.5-9.2,6.4-16.1,14.4-20.5C49-1,71.6,3.6,79.3,23.5c2.2,5.8,2.6,11.8,1.4,17.8  c-0.2,0.9,0,1.4,0.8,1.9c1.7,0.9,3.5,1.5,5.3,2.1c5.4,1.9,9.8,8.6,9,15.5c-0.3,2.2-1.6,4-3.1,5.6c-0.3,0.3-0.5,0.6-0.6,1  c-0.9,10-5.9,17.4-14,23.1c-9,6.2-19,8.7-29.8,7.7c-5.7-0.5-11.1-2-16-5.1c-1-0.6-1.9-1-3.1-1c-4.3-0.3-8-2.1-11-5.1  C11.5,80.6,7.2,72.9,5.5,63.8c-0.5-2.5-0.1-4.9,0.6-7.3C6.3,55.7,6.3,55,6,54.2c-1.5-3.9-2-8-1.9-12.1c0-2.1,0.4-4.1,1-6  c1-3.2,3.7-4.8,7-4C14.4,32.7,16.6,33.5,19,34.2z M9.3,56.5c-1.1,2.8-1.3,6.1-0.4,9.3c1.9,6.8,5.2,12.9,10.1,18  c2.3,2.4,5.1,4.2,8.4,5c2,0.5,4.1,0.8,6-0.6c3.1-2.4,4.5-6.4,3.5-10.5c-0.9-3.7-4-6.5-8-7.2c-0.9-0.1-1.7-0.2-2.6-0.4  c-0.9-0.2-1.5-0.7-1.3-1.7c0.1-0.9,0.8-1.3,1.6-1.2c0.9,0.1,1.7,0.1,2.6,0.3c4.9,1,8.7,3.5,10.2,8.4c1.5,5,0.8,9.5-2.9,13.5  c-0.5,0.6-1.8,1-1.5,1.7c0.2,0.6,1.4,1,2.2,1.3c13.1,5.2,25.8,4.1,37.8-3.3c4.3-2.7,8.1-6,10.7-10.4c2.6-4.4,3.8-9.2,3.5-14.4  c-0.2-4.7-2.9-8.2-7.3-9.7c-1.3-0.4-1.8-1.2-1.5-2.1c0.5-1.1,1.3-1,2.3-0.8c3,0.7,5.1,2.4,6.8,4.9c1.1,1.7,2,3.5,2.4,5.7  c0.6-0.8,0.9-1.4,0.9-2.2c0.5-5-2.7-10.4-7.2-12.1C84,47.5,82.2,47,80.6,46c-0.8-0.5-1-0.2-1.3,0.5c-2.2,5.4-6.1,9.3-11.3,11.8  c-1.7,0.8-3.5,1.3-5.4,1.6c-0.9,0.2-1.6-0.2-1.8-1.1c-0.2-0.9,0.3-1.5,1.2-1.8c0.6-0.2,1.1-0.2,1.7-0.4c6.5-1.8,11.1-5.8,13.3-12.4  c1.6-4.8,1.9-9.7,1-14.7c-1.3-7.5-5.1-13.5-11.3-17.9c-6.1-4.3-13-5.7-20.4-5.1C33.3,7.7,23.6,17,22.2,28.4  c-0.9,7.2,0.5,14,5.5,19.6c0.9,1,1.8,1.8,2.7,2.8c0.6,0.7,0.8,1.4,0.1,2.1c-0.7,0.7-1.4,0.5-2.1,0c-0.2-0.1-0.3-0.3-0.5-0.4  c-4.3-3.8-7.1-8.5-8.3-14.1c-0.1-0.5-0.2-0.8-0.8-1c-2.4-0.7-4.7-1.5-7-2.2c-2.4-0.7-3.6,0-4.2,2.4c-1.1,4.8-0.7,9.5,0.6,14.2  c0.1,0.3,0.1,0.7,0.5,0.7c2.1,0.2,2.7,1.9,3.3,3.4c1,2.4,2.5,4.3,4.4,6c0.7,0.6,1.4,1.3,2.1,2c0.6,0.6,0.7,1.3,0.1,2  c-0.6,0.7-1.3,0.7-2,0.2c-0.3-0.2-0.5-0.4-0.8-0.6C13.2,62.9,10.4,60.5,9.3,56.5z M50.4,50c-3.3,0-6-0.7-8.4-2.3  c-1.5-1-3.1-1.9-4.7-2.9c-0.6-0.4-1.1-0.8-1.6-1.2c-0.8-0.8-1.2-1.8-0.8-2.9c0.3-1.1,1.2-1.8,2.3-1.8c3-0.1,5.1-1.6,7.1-3.6  c3.2-3.1,6.7-3,10-0.1c1.3,1.1,2.6,2.3,3.9,3.5c1.2,1.1,2.4,2.1,3.8,2.8c1,0.5,1.8,1.4,1.8,2.7c-0.1,1.2-0.9,2-2,2.4  c-3,1-5.9,2.4-8.9,3.2C52,49.9,51,50,50.4,50z M51.2,48c2.9-0.1,6.4-2.2,10.1-3.4c1-0.3,0.7-1-0.1-1.4c-1.2-0.6-2.3-1.3-3.3-2.3  c-1.5-1.4-3-2.7-4.4-4c-3.1-2.7-5.4-2.8-8.3,0.1c-2,2-4.2,3.5-7.2,3.6c-0.5,0-1.1,0-1.3,0.6c-0.2,0.7,0.4,1.1,0.8,1.4  c1.8,1.2,3.7,2.3,5.5,3.5C45.2,47.4,47.5,48,51.2,48z M36.3,26.4c-1.3-0.7-2.6-0.5-3.8,0.3c-2.2,1.5-3.2,4.6-2.2,7.1  c0.6,1.5,1.8,2.1,3.4,1.7c2.4-0.6,4.2-3.2,4.1-5.9C37.8,28.3,37.6,27.1,36.3,26.4z M68.8,30.9c-2-1.7-4.4-1-5.2,1.5  c-0.8,2.4,0.3,5.5,2.4,6.8c1.9,1.2,4,0.3,4.6-1.8c0.2-0.6,0.2-1.2,0.2-1.5C70.8,33.5,70.2,32,68.8,30.9z M52.5,45.2  c-3.2,0-6.1-0.2-9-1.1c-0.4-0.1-0.9-0.3-1.3-0.5c-0.7-0.4-1.3-0.9-1.1-1.7c0.2-0.8,0.9-0.8,1.6-0.8c1.7-0.1,3.4-0.9,5.1-0.9  c2.9-0.1,5.7,0.3,8.3,1.8c0.4,0.2,0.7,0.4,1.1,0.5c0.6,0.2,1,0.6,1,1.3c0,0.7-0.5,1-1.1,1.2C55.6,45.3,53.9,45.2,52.5,45.2z   M54.1,43.1c-2.8-1-5.6-1.6-8.5-0.5C48.3,43.2,51.2,43.3,54.1,43.1z"/><text x="0" y="115" fill="#000000" font-size="5px" font-weight="bold" font-family="'Helvetica Neue', Helvetica, Arial-Unicode, Arial, Sans-serif">Created by visual akasha</text><text x="0" y="120" fill="#000000" font-size="5px" font-weight="bold" font-family="'Helvetica Neue', Helvetica, Arial-Unicode, Arial, Sans-serif">from the Noun Project</text></svg>