<svg xmlns:dc="http://purl.org/dc/elements/1.1/" xmlns:cc="http://creativecommons.org/ns#" xmlns:rdf="http://www.w3.org/1999/02/22-rdf-syntax-ns#" xmlns:svg="http://www.w3.org/2000/svg" xmlns="http://www.w3.org/2000/svg" xmlns:sodipodi="http://sodipodi.sourceforge.net/DTD/sodipodi-0.dtd" xmlns:inkscape="http://www.inkscape.org/namespaces/inkscape" version="1.1" x="0px" y="0px" viewBox="0 0 100 100">
<g transform="translate(0,-952.36218)"><g transform="translate(5.9980316,961.33068)">
<path d="m 34.086614,0.03543307 c -9.673228,0 -18.389764,6.51968493 -18.956693,15.98031493 1.027559,4.287401 4.181102,9.602362 6.555118,12.791338 0.496063,0.673228 0.531496,1.629921 0.07087,2.30315 l -2.409449,4.003937 1.736221,2.905511 C 16.086614,44.043306 9.1062991,51.023621 9.1062991,61.015747 c 0,10.027559 5.9881889,20.019684 19.9842519,21.01181 l 29.940944,0 c 14.988189,0 28.984252,-18.992125 28.984252,-39.01181 C 69.023621,53.043306 66.047243,36.035432 44.07874,40.039369 54.035432,35.043306 56.055117,28.027558 56.055117,21.011811 56.055117,11.019685 49.03937,0.03543307 34.086614,0.03543307 z M 27.070866,13.03937 c 2.232283,0 4.003937,1.771653 4.003937,4.003937 0,2.19685 -1.771654,3.968504 -4.003937,3.968504 -2.196851,0 -3.968504,-1.771654 -3.968504,-3.968504 0,-2.232284 1.771653,-4.003937 3.968504,-4.003937 z M 11.905512,18.885826 C 6.8031495,21.11811 3.4724409,19.027559 0.10629921,19.027559 -0.81496062,24.69685 3.5787401,33.059054 15.909449,33.094488 L 17.681102,30.01181 C 15.874016,27.389763 13.322835,22.996063 11.905512,18.885826 z M 39.082677,48.01181 c 5.527559,0 19.240157,2.019685 28.381889,4.03937 0.814961,0.177165 1.452756,0.885827 1.559055,1.700787 0.1063,0.850394 -0.35433,1.700788 -1.098425,2.055118 l -6.874016,3.472441 3.082678,2.055118 c 1.098425,0.744095 1.098425,2.657481 -0.03543,3.366142 l -5.633858,3.507874 2.834646,2.267717 c 0.602362,0.496062 0.850394,1.346456 0.637795,2.090551 -0.248031,0.779527 -0.92126,1.346456 -1.700787,1.417322 -6.874016,0.673229 -13.925197,2.055119 -21.153543,2.055119 -9.956693,-0.07087 -15.874016,-6.590552 -15.980315,-15.023622 0,-6.059055 5.173228,-13.003937 15.980315,-13.003937 z m 0,4.003937 c -9.212599,0 -12.011811,5.066929 -12.011811,9 0.03543,6.803149 6.165354,10.877952 12.011811,11.019685 5.173228,0 10.523622,-0.779528 15.980315,-1.452756 L 53.787401,69.59055 c -0.992126,-0.779528 -0.885827,-2.622047 0.212598,-3.295276 L 59.31496,62.964566 55.913385,60.696849 C 54.744094,59.917322 54.885826,57.82677 56.125984,57.224408 L 60.69685,54.921259 C 52.334645,53.397637 42.661417,52.015747 39.082677,52.015747 z" style="" fill="#f9d300" fill-opacity="1" fill-rule="nonzero" stroke="#661d34"/>
</g>
</g>
<!-- <text x="0" y="115" fill="#000000" font-size="5px" font-weight="bold" font-family="'Helvetica Neue', Helvetica, Arial-Unicode, Arial, Sans-serif">Created by Orin zuu</text>
<text x="0" y="120" fill="#000000" font-size="5px" font-weight="bold" font-family="'Helvetica Neue', Helvetica, Arial-Unicode, Arial, Sans-serif">from the Noun Project</text> -->
</svg>