<svg xmlns:dc="http://purl.org/dc/elements/1.1/" xmlns:cc="http://creativecommons.org/ns#" xmlns:rdf="http://www.w3.org/1999/02/22-rdf-syntax-ns#" xmlns:svg="http://www.w3.org/2000/svg" xmlns="http://www.w3.org/2000/svg" xmlns:sodipodi="http://sodipodi.sourceforge.net/DTD/sodipodi-0.dtd" xmlns:inkscape="http://www.inkscape.org/namespaces/inkscape" version="1.1" x="0px" y="0px" viewBox="0 0 100 100">
<g transform="translate(0,-952.36218)">
<path style="text-indent:0;text-transform:none;direction:ltr;block-progression:tb;baseline-shift:baseline;color:#000000;enable-background:accumulate;" d="m 40.076481,958.36242 c -10.74609,0 -20.66012,7.3496 -21.75202,18.0919 -5.16365,3.199 -7.07717,0.9061 -12.2023602,0.9061 -1.405,0 -2.73048,1.1127 -2.96476,2.4997 -1.2841797,7.7146 5.30759,17.5105 19.2241702,17.4357 l 1.02986,1.7185 c -4.82823,5.63288 -11.29732,12.90528 -11.29732,23.34128 0,5.5994 1.66082,11.2797 5.43021,15.7796 3.76938,4.4999 9.65231,7.6383 17.32047,8.1867 10.03406,0.066 20.12465,0.031 30.1782,0.031 8.75491,0 16.73847,-5.435 22.50102,-13.2174 5.762553,-7.7822 9.456043,-18.0793 9.456043,-28.7782 0.002,-1.0301 -0.56817,-2.043 -1.44937,-2.5749 -0.88119,-0.5319 -2.042,-0.5637 -2.95096,-0.081 -8.810553,4.6427 -12.545993,3.058 -18.256723,0.625 -3.86102,-1.6451 -8.61333,-3.72068 -14.82383,-4.31218 1.15776,-1.2746 2.1551,-2.6099 2.90235,-3.9996 2.0604,-3.831 2.62147,-7.8696 2.62147,-11.6549 0.0137,-14.686 -11.88799,-24.053 -24.96645,-23.9973 z m 0,5.9994 c 10.84517,0.2813 19.01498,7.9792 18.97451,17.9981 0,3.2139 -0.46879,6.1434 -1.9037,8.8115 -1.4349,2.6682 -3.86164,5.2142 -8.42617,7.4993 -1.25737,0.6491 -1.91666,2.27118 -1.46929,3.61498 0.44736,1.3437 1.94685,2.2453 3.34177,2.0094 10.22671,-1.8617 15.35403,0.9957 21.37753,3.5621 5.01309,2.1359 10.98262,3.5779 18.66242,0.9999 -0.86387,7.7036 -3.73252,15.063 -7.89564,20.6853 -4.97303,6.7161 -11.47001,10.8113 -17.69498,10.8113 l -29.74128,0 c -6.31305,-0.4514 -10.41671,-2.8125 -13.1386,-6.0618 -2.72189,-3.2494 -4.05705,-7.5367 -4.05705,-11.9363 0,-8.599 6.1573,-14.9157 11.29732,-21.0915 0.78615,-0.9534 0.89114,-2.41188 0.24967,-3.46838 l -1.99732,-3.3433 0.93624,-1.4375 c 0.68484,-1.0249 0.64553,-2.4818 -0.0936,-3.4683 -2.40827,-3.7452 -4.40628,-6.2829 -4.40034,-11.1863 -0.0867,-9.1677 9.1674,-13.8253 15.97851,-13.9985 z m -6.99061,9.9989 c -2.20617,0 -3.99463,1.7907 -3.99463,3.9996 0,2.2089 1.78846,3.9996 3.99463,3.9996 2.20618,0 3.99464,-1.7907 3.99464,-3.9996 0,-2.2089 -1.78846,-3.9996 -3.99464,-3.9996 z m -14.38691,8.7803 c 0.73137,2.9943 2.08669,5.6937 3.77617,8.2179 -5.26948,-0.1072 -12.44438,-1.9603 -13.1697902,-7.5935 3.7722702,0.3167 6.7218302,0.4097 9.3936202,-0.6244 z m 26.37081,25.21608 c -11.18497,0 -16.97719,7.3992 -16.97719,13.9985 0.10854,10.0044 7.84674,15.996 16.97719,15.9983 7.37104,0 14.44973,-1.3823 21.2527,-2.0309 1.17191,-0.1178 2.23211,-0.9934 2.57055,-2.123 0.33843,-1.1295 -0.0653,-2.4449 -0.97894,-3.1891 l -1.68524,-1.3748 c 1.92392,-1.3747 5.71045,-2.645 5.7951,-5.2481 0.0598,-1.987 -1.44581,-2.6087 -3.0488,-3.6884 l 5.399,-2.6873 c 1.08509,-0.5556 1.75817,-1.8257 1.60949,-3.0369 -0.14867,-1.2111 -1.10888,-2.2801 -2.29607,-2.5562 -9.21731,-2.0508 -22.82558,-4.0621 -28.61779,-4.0621 z m 0,5.9994 c 2.99253,0 10.89094,1.0896 18.50639,2.3747 -1.59129,0.6831 -3.3619,1.7655 -3.49755,3.4262 0.27342,2.295 1.63996,2.8885 3.43513,4.1042 l -4.05705,2.5311 c -1.43011,0.8851 -1.81923,3.0824 -0.7802,4.4058 -4.64244,0.5861 -9.21639,1.1561 -13.60672,1.1561 -6.75582,-0.064 -10.88166,-4.0821 -10.98524,-9.999 0,-3.3996 2.19705,-7.9991 10.98524,-7.9991 z" fill="#f9d300" fill-opacity="1" stroke="none" marker="red" visibility="visible" display="inline" overflow="visible"/>
</g>
<!-- <text x="0" y="115" fill="#000000" font-size="5px" font-weight="bold" font-family="'Helvetica Neue', Helvetica, Arial-Unicode, Arial, Sans-serif">Created by Orin zuu</text>
<text x="0" y="120" fill="#000000" font-size="5px" font-weight="bold" font-family="'Helvetica Neue', Helvetica, Arial-Unicode, Arial, Sans-serif">from the Noun Project</text> -->
</svg>